<?xml version="1.0" encoding="UTF-8" standalone="no"?>
<svg
   width="24"
   height="24"
   fill="none"
   version="1.1"
   id="svg1"
   sodipodi:docname="kotas-logo.svg"
   inkscape:version="1.3.1 (9b9bdc1480, 2023-11-25, custom)"
   xmlns:inkscape="http://www.inkscape.org/namespaces/inkscape"
   xmlns:sodipodi="http://sodipodi.sourceforge.net/DTD/sodipodi-0.dtd"
   xmlns="http://www.w3.org/2000/svg"
   xmlns:svg="http://www.w3.org/2000/svg">
  <defs
     id="defs1" />
  <sodipodi:namedview
     id="namedview1"
     pagecolor="#ffffff"
     bordercolor="#000000"
     borderopacity="0.25"
     inkscape:showpageshadow="2"
     inkscape:pageopacity="0.0"
     inkscape:pagecheckerboard="0"
     inkscape:deskcolor="#d1d1d1"
     inkscape:zoom="33.791667"
     inkscape:cx="11.985203"
     inkscape:cy="12"
     inkscape:window-width="1920"
     inkscape:window-height="1011"
     inkscape:window-x="0"
     inkscape:window-y="32"
     inkscape:window-maximized="1"
     inkscape:current-layer="svg1" />
  <path
     d="M.005 11.595c0-2.112-.011-4.221.002-6.333C.022 3.054 1.06 1.42 3.044.539c2.095-.932 4.133-.673 5.892.89.732.65 1.42 1.353 2.075 2.08.447.496.751.437 1.172-.024.616-.68 1.282-1.315 1.94-1.953 2.94-2.857 7.932-1.474 8.899 2.506.448 1.846.097 3.59-1.29 5.012-.683.701-1.363 1.409-2.081 2.07-.422.39-.4.66.009 1.04a42.748 42.748 0 0 1 2.014 2.01c2.073 2.19 2.031 5.523-.083 7.594-2.123 2.08-5.409 2.027-7.584-.124-.566-.56-1.169-1.09-1.674-1.699-.57-.686-.997-.594-1.533.033-.516.603-1.11 1.136-1.679 1.696-1.652 1.629-3.797 2.051-5.913 1.167-2.014-.845-3.203-2.698-3.203-5v-6.242zm2.186 0c0 2.143.002 4.285-.002 6.428-.003 1.359.723 2.273 1.879 2.798 1.217.553 2.393.353 3.379-.603.681-.66 1.317-1.372 2.025-2.001.5-.447.424-.727-.022-1.16a263.39 263.39 0 0 1-4.485-4.475c-.701-.712-.704-1.167-.011-1.875a156.646 156.646 0 0 1 3.181-3.183c1.309-1.267.701-1.156 2.136.013.394.32.42.58.024.951-.934.882-1.814 1.823-2.741 2.713-.331.318-.366.516-.016.863 2.696 2.669 5.359 5.371 8.059 8.034 1.389 1.37 3.166 1.357 4.476.037 1.28-1.287 1.259-3.15-.063-4.503-.642-.657-1.313-1.284-1.94-1.955-.36-.385-.627-.364-.98.004-.827.86-1.735 1.649-2.508 2.552-.63.736-.967.257-1.365-.172-.386-.413-.989-.694-.227-1.424 2.404-2.303 4.732-4.688 7.079-7.05 1.123-1.13 1.26-2.76.36-4.015-1.153-1.603-3.395-1.799-4.815-.416-.657.64-1.276 1.326-1.96 1.936-.47.418-.409.694.018 1.088.742.684 1.435 1.42 2.149 2.136.923.926.888.893.035 1.853-.534.604-.847.492-1.361-.035-2.264-2.32-4.572-4.6-6.87-6.893-.951-.95-2.469-1.278-3.634-.725-1.21.575-1.826 1.548-1.809 2.928.028 2.05.009 4.1.009 6.151z"
     fill="#30455C"
     id="path1" />
</svg>
