<?xml version="1.0" encoding="UTF-8" standalone="no"?>
<svg
   width="50"
   height="16"
   fill="none"
   version="1.1"
   id="svg1"
   xmlns="http://www.w3.org/2000/svg"
   xmlns:svg="http://www.w3.org/2000/svg">
  <defs
     id="defs1" />
  <path
     d="M10.122 13.17c-.072.669-.266 1.178-.586 1.533-.32.355-.784.534-1.395.534a2.26 2.26 0 0 1-1.215-.331c-.355-.22-.739-.592-1.15-1.12l-2.11-2.64v3.877c-.157.029-.387.068-.692.118a5.71 5.71 0 0 1-1.768.01 1.476 1.476 0 0 1-.63-.254 1.235 1.235 0 0 1-.394-.522c-.093-.22-.139-.508-.139-.863V1.176c.157-.044.388-.09.692-.14a5.711 5.711 0 0 1 1.77-.01c.249.043.458.128.63.254.17.129.302.303.394.523.091.22.14.507.14.862v5.624l3.664-3.75c.738 0 1.33.164 1.779.49.446.327.67.739.67 1.235 0 .213-.035.41-.106.586-.072.178-.181.359-.331.542-.15.185-.342.38-.575.586-.235.206-.508.444-.821.714L6.714 9.756l3.408 3.415zM21.646 9.867c0 .882-.134 1.666-.404 2.354a4.77 4.77 0 0 1-1.14 1.736 4.856 4.856 0 0 1-1.756 1.064c-.682.242-1.442.362-2.28.362-.838 0-1.598-.129-2.28-.383a4.99 4.99 0 0 1-1.757-1.098 4.855 4.855 0 0 1-1.139-1.735c-.27-.682-.405-1.448-.405-2.302 0-.838.136-1.598.405-2.28.27-.68.65-1.26 1.14-1.735a5.051 5.051 0 0 1 1.756-1.097c.682-.255 1.442-.383 2.28-.383.838 0 1.598.13 2.28.394a5.14 5.14 0 0 1 1.757 1.108c.49.477.869 1.054 1.139 1.735.27.684.404 1.437.404 2.26zm-7.455 0c0 .867.168 1.531.501 1.993.333.461.8.692 1.396.692.596 0 1.054-.235 1.374-.703.32-.468.479-1.13.479-1.982 0-.85-.164-1.508-.49-1.97-.327-.462-.788-.692-1.385-.692s-1.058.23-1.385.692c-.326.462-.49 1.12-.49 1.97zM26.365 11.488c0 .37.117.63.35.788.236.156.564.235.991.235a4.34 4.34 0 0 0 1.256-.192c.129.157.238.331.331.523.092.191.14.422.14.692 0 .54-.203.98-.608 1.322-.405.342-1.119.511-2.14.511-1.25 0-2.212-.285-2.887-.85-.675-.57-1.013-1.492-1.013-2.77V2.626c.157-.044.38-.09.67-.14.293-.05.6-.074.929-.074.624 0 1.11.111 1.458.331.349.22.523.686.523 1.396v.63h2.791c.085.156.168.35.246.585.079.235.118.494.118.777 0 .497-.111.856-.331 1.076-.22.22-.516.33-.884.33h-1.938v3.95h-.002zM34.854 4.372c.767 0 1.466.078 2.1.235.63.157 1.17.394 1.62.714.446.32.792.725 1.034 1.215.241.49.36 1.07.36 1.736v4.772c0 .37-.101.67-.308.906-.207.235-.451.438-.736.607-.923.553-2.223.832-3.898.832-.753 0-1.43-.072-2.033-.213-.603-.142-1.122-.355-1.555-.638a2.935 2.935 0 0 1-1.002-1.087c-.235-.44-.35-.951-.35-1.532 0-.98.292-1.734.873-2.258.581-.525 1.483-.852 2.707-.98l2.79-.298v-.15c0-.412-.18-.706-.541-.885-.362-.176-.884-.265-1.566-.265a7.27 7.27 0 0 0-1.576.17 8.172 8.172 0 0 0-1.385.426 1.457 1.457 0 0 1-.468-.585 1.845 1.845 0 0 1-.192-.821c0-.37.09-.664.266-.884.176-.22.45-.407.82-.564.412-.157.898-.27 1.46-.342a11.643 11.643 0 0 1 1.58-.111zm.17 8.372c.242 0 .508-.024.8-.074.291-.05.507-.118.648-.203v-1.705l-1.533.129c-.398.028-.725.113-.98.255a.69.69 0 0 0-.383.64c0 .285.11.514.331.692.22.177.592.266 1.117.266zM50 11.956c0 1.08-.405 1.924-1.215 2.534-.81.61-2.003.917-3.58.917-.596 0-1.15-.044-1.66-.129a4.8 4.8 0 0 1-1.312-.394 2.324 2.324 0 0 1-.851-.67 1.53 1.53 0 0 1-.31-.959c0-.341.073-.629.214-.862a2.12 2.12 0 0 1 .512-.586c.411.227.884.43 1.417.608.534.179 1.148.266 1.842.266.44 0 .778-.063 1.013-.192.235-.128.35-.298.35-.512a.535.535 0 0 0-.254-.468c-.17-.113-.455-.204-.852-.276l-.638-.129c-1.234-.241-2.155-.62-2.758-1.139-.603-.518-.906-1.26-.906-2.225 0-.525.113-1.001.342-1.428a2.97 2.97 0 0 1 .958-1.065 4.841 4.841 0 0 1 1.48-.66 7.24 7.24 0 0 1 1.908-.235c.524 0 1.019.04 1.48.118a4.92 4.92 0 0 1 1.204.35c.342.157.61.36.81.608.198.248.299.542.299.884 0 .327-.061.607-.181.84-.12.236-.274.43-.457.586a2.589 2.589 0 0 0-.512-.224 7.682 7.682 0 0 0-.745-.214c-.27-.063-.542-.117-.82-.159a4.88 4.88 0 0 0-.756-.063c-.468 0-.832.053-1.087.16-.254.106-.383.274-.383.5a.45.45 0 0 0 .214.383c.141.1.411.192.81.277l.66.148c1.362.313 2.331.742 2.908 1.289.569.548.856 1.254.856 2.12z"
     fill="#30455C"
     id="path1" />
</svg>
